<svg width="1440" height="995" viewBox="0 0 1440 995" fill="none" xmlns="http://www.w3.org/2000/svg">
<path d="M1459.44 -83.2002C1437.19 35.1601 1384.33 154.076 1313.88 244.006C1271.03 298.669 1221.78 343.277 1167.5 376.572C1152.49 385.788 1137.08 394.132 1121.32 401.598C1112.34 405.849 1103.24 409.816 1094.02 413.493C1082.78 411.351 1071.43 408.926 1059.99 406.209C1068.98 401.946 1077.88 397.392 1086.63 392.553C1093.22 388.921 1099.73 385.131 1106.17 381.183C1160.45 347.888 1209.7 303.281 1252.54 248.617C1323 158.687 1375.85 39.7776 1398.11 -78.5891L1459.44 -83.2002Z" fill="#FEEBCB" fill-opacity="0.3"/>
<path d="M1582.72 -92.4731C1560.47 25.8872 1507.61 144.803 1437.15 234.733C1394.33 289.397 1345.08 334.004 1290.8 367.299C1258.59 387.045 1224.6 402.811 1189.09 414.484C1179.69 417.579 1170.18 420.384 1160.57 422.898C1149.69 421.912 1138.69 420.636 1127.61 419.07C1137.03 415.975 1146.33 412.583 1155.52 408.913C1180.97 398.756 1205.55 386.419 1229.16 371.936C1283.44 338.641 1332.69 294.033 1375.52 239.369C1445.97 149.44 1498.83 30.5236 1521.08 -87.8368L1582.72 -92.4731Z" fill="#FEEBCB" fill-opacity="0.3"/>
<path d="M1706.01 -101.752C1683.76 16.6142 1630.9 135.53 1560.45 225.46C1517.62 280.124 1468.37 324.731 1414.09 358.026C1364.75 388.283 1311.2 409.184 1254.44 420.377C1244.63 422.31 1234.73 423.952 1224.73 425.304C1214.24 425.494 1203.65 425.38 1192.96 424.982C1202.77 423.049 1212.46 420.819 1222.07 418.305C1268.02 406.285 1311.67 387.67 1352.45 362.663C1406.73 329.368 1455.98 284.76 1498.81 230.096C1569.26 140.167 1622.12 21.2506 1644.37 -97.1161L1706.01 -101.752Z" fill="#FEEBCB" fill-opacity="0.3"/>
<path d="M1829 -111C1806.75 7.36667 1753.89 126.277 1683.44 216.206C1640.61 270.87 1591.36 315.478 1537.08 348.772C1477.08 385.579 1410.84 408.534 1340.18 417.017C1332.59 417.926 1324.94 418.672 1317.25 419.253L1255.92 423.864C1263.63 423.283 1271.27 422.538 1278.85 421.628C1349.5 413.145 1415.73 390.184 1475.74 353.383C1530.03 320.089 1579.28 275.481 1622.1 220.817C1692.55 130.888 1745.41 11.9715 1767.67 -106.389L1829 -111Z" fill="#FEEBCB" fill-opacity="0.3"/>
<path d="M916.643 448.486C914.186 448.821 911.762 449.137 909.288 449.434C901.695 450.343 894.052 451.089 886.341 451.67C882.901 451.929 879.46 452.15 875.986 452.346C768.64 458.321 649.685 432.676 521.222 375.89C503.173 367.906 484.937 359.315 466.515 350.105C469.447 339.329 472.871 329.431 476.819 320.392C489.75 326.387 503.122 332.931 517.019 340.024C520.629 341.869 524.239 343.694 527.848 345.494C669.005 416.057 799.468 450.59 916.643 448.486Z" fill="#FEEBCB" fill-opacity="0.3"/>
<path d="M1039.75 439.22C1037.26 439.561 1034.77 439.877 1032.26 440.18C1024.67 441.096 1017.02 441.835 1009.33 442.416C1005.89 442.675 1002.43 442.902 998.958 443.098C992.06 443.477 985.112 443.736 978.129 443.856H978.112C967.69 444.039 957.165 443.938 946.539 443.54C834.651 439.371 711.323 403.158 578.658 335.388C564.676 328.25 551.203 321.668 538.221 315.642C521.629 307.936 505.8 301.126 490.649 295.176C495.886 287.558 501.699 280.844 508.156 275.007C522.154 279.309 536.78 284.444 552.05 290.451C579.149 301.082 608.384 314.442 640.296 330.751C760.285 392.048 872.648 427.528 975.808 436.832C986.637 437.805 997.365 438.493 1007.99 438.898C1018.68 439.296 1029.28 439.409 1039.75 439.22Z" fill="#FEEBCB" fill-opacity="0.3"/>
<path d="M1194.26 428.507L1132.62 433.143C1129.18 433.402 1125.73 433.63 1122.25 433.819C1115.37 434.204 1108.44 434.457 1101.46 434.577C1090.97 434.767 1080.36 434.659 1069.65 434.255C1058.97 433.851 1048.17 433.162 1037.29 432.17C1026.46 431.198 1015.52 429.928 1004.48 428.368C910.492 415.116 809.281 380.937 701.951 326.115C651.888 300.533 608.435 282.208 569.591 270.308C565.405 269.025 561.269 267.819 557.185 266.688C547.678 264.048 538.441 261.818 529.476 260.012C537.204 255.881 545.593 252.609 554.66 250.177C566.167 251.061 578.268 252.786 590.911 255.331C599.944 257.15 609.265 259.393 618.84 262.052C660.803 273.706 708.154 293.142 763.59 321.478C858.242 369.832 948.149 402.122 1032.55 418.16C1043.78 420.302 1054.94 422.152 1065.97 423.713C1077.07 425.279 1088.05 426.555 1098.95 427.534C1109.83 428.52 1120.62 429.214 1131.3 429.619C1142.01 430.017 1152.6 430.13 1163.11 429.941C1170.09 429.814 1177.03 429.562 1183.91 429.183C1187.36 428.993 1190.82 428.766 1194.26 428.507Z" fill="#FEEBCB" fill-opacity="0.3"/>
<path d="M1317.23 419.259L1255.9 423.87C1252.46 424.129 1249 424.357 1245.55 424.546C1238.65 424.925 1231.72 425.184 1224.73 425.304C1214.24 425.494 1203.65 425.38 1192.96 424.982C1182.28 424.578 1171.47 423.883 1160.57 422.898C1149.69 421.912 1138.69 420.636 1127.61 419.07C1116.51 417.503 1105.32 415.646 1094.02 413.492C1082.78 411.351 1071.43 408.925 1059.99 406.209C985.638 388.548 907.221 358.721 825.246 316.842C769.793 288.506 722.442 269.07 680.479 257.416C645.635 247.739 614.384 243.62 587.268 245.13C586.064 245.193 584.861 245.275 583.675 245.364L645.008 240.752C646.194 240.658 647.398 240.582 648.601 240.512C675.717 239.003 706.969 243.121 741.813 252.798C783.775 264.459 831.127 283.895 886.579 312.225C955.912 347.642 1022.7 374.443 1086.63 392.553C1098.29 395.856 1109.85 398.869 1121.32 401.598C1132.81 404.327 1144.22 406.765 1155.52 408.913C1166.81 411.06 1178.01 412.917 1189.09 414.484C1200.19 416.051 1211.18 417.32 1222.07 418.306C1232.97 419.285 1243.75 419.979 1254.44 420.377C1265.15 420.775 1275.75 420.883 1286.24 420.687C1293.17 420.567 1300.05 420.314 1306.88 419.935C1310.35 419.739 1313.79 419.518 1317.23 419.259Z" fill="#FEEBCB" fill-opacity="0.3"/>
<path d="M275.448 268.544C271.753 268.822 268.127 269.208 264.585 269.707C258.314 270.585 252.315 271.785 246.586 273.32C200.285 285.707 171.525 319.785 156.781 379.135C142.426 436.819 142.596 510.874 142.782 589.276C142.986 676.42 143.189 766.538 122.937 839.179C112.751 875.702 98.0067 905.194 78.4662 927.883C72.6023 934.686 66.3147 940.883 59.5696 946.473C45.4862 942.405 31.3349 937.75 17.1328 932.501C23.1662 925.502 28.725 917.852 33.8601 909.552C45.3336 890.95 54.5531 869.057 61.6033 843.797C81.8557 771.15 81.6523 681.037 81.449 593.887C81.2625 515.485 81.0931 441.43 95.4307 383.753C112.022 317.05 146.29 282.277 203.251 274.318C206.793 273.825 210.42 273.44 214.115 273.162L215.911 273.029L275.448 268.544Z" fill="#FEEBCB" fill-opacity="0.3"/>
<path d="M398.742 259.271C395.03 259.549 391.421 259.935 387.879 260.434C381.557 261.318 375.507 262.531 369.745 264.085C360.678 266.517 352.289 269.782 344.544 273.913C336.832 278.019 329.765 282.984 323.308 288.827C303.174 307.038 289.023 333.776 280.058 369.862C265.72 427.546 265.89 501.601 266.076 580.003C266.263 667.147 266.483 757.265 246.231 829.906C229.978 888.215 202.082 928.584 161.645 952C154.29 956.251 146.545 959.94 138.359 963.079C127.123 961.614 115.853 959.75 104.566 957.489C103.074 957.192 101.6 956.889 100.108 956.573C107.548 952.265 114.548 947.382 121.123 941.918C150.358 917.694 171.322 882.081 184.575 834.543C204.845 761.902 204.624 671.783 204.438 584.639C204.234 506.238 204.082 432.182 218.42 374.499C230.283 326.777 251.196 295.396 283.007 278.493C290.718 274.393 299.073 271.14 308.106 268.721C313.868 267.167 319.919 265.954 326.24 265.07C329.765 264.571 333.392 264.186 337.087 263.908L398.742 259.271Z" fill="#FEEBCB" fill-opacity="0.3"/>
<path d="M522.035 249.999C518.324 250.277 514.714 250.662 511.172 251.155C504.833 252.039 498.783 253.252 493.021 254.812C483.954 257.244 475.565 260.516 467.82 264.647C460.058 268.772 452.974 273.762 446.5 279.643C440.06 285.479 434.23 292.194 428.993 299.805C423.841 307.284 419.265 315.635 415.231 324.882C410.554 335.576 406.605 347.464 403.351 360.59C389.013 418.273 389.183 492.323 389.369 570.724C389.556 657.874 389.776 747.993 369.524 820.634C347.255 900.482 303.191 946.688 234.892 961.791C233.994 961.993 233.096 962.183 232.197 962.372C223.08 964.254 213.928 965.865 204.725 967.179C194.32 967.267 183.88 967.008 173.406 966.389C182.677 964.336 191.506 961.702 199.861 958.494C253.195 938.072 288.667 894.216 307.868 825.27C328.138 752.629 327.917 662.511 327.731 575.367C327.528 496.959 327.375 422.909 341.713 365.226C347.814 340.693 356.305 320.48 367.439 304.328C372.642 296.761 378.438 290.084 384.861 284.279C391.335 278.398 398.419 273.408 406.181 269.284C413.909 265.153 422.298 261.887 431.365 259.449C437.145 257.895 443.195 256.676 449.533 255.791C453.058 255.299 456.685 254.913 460.38 254.635L522.035 249.999Z" fill="#FEEBCB" fill-opacity="0.3"/>
<path d="M645.007 240.752C641.313 241.03 637.686 241.415 634.144 241.908C627.856 242.786 621.857 243.986 616.128 245.527C607.062 247.953 598.672 251.212 590.91 255.331C583.165 259.449 576.064 264.433 569.59 270.307C563.133 276.137 557.303 282.846 552.05 290.451C546.881 297.961 542.271 306.35 538.22 315.641C534.238 324.718 530.797 334.661 527.848 345.494C527.323 347.414 526.815 349.366 526.323 351.343C524.357 359.232 522.679 367.419 521.222 375.889C512.036 429.353 512.189 493.795 512.341 561.477C512.545 648.627 512.748 738.74 492.496 811.387C469.939 892.277 425.011 938.641 355.169 953.118C336.002 957.092 316.614 959.814 297.039 961.286L235.706 965.897C255.28 964.425 274.668 961.703 293.836 957.736C363.677 943.258 408.605 896.895 431.162 815.998C451.415 743.357 451.211 653.238 451.008 566.088C450.822 487.687 450.652 413.637 464.99 355.954C465.481 353.977 465.99 352.025 466.515 350.105C469.447 339.329 472.87 329.431 476.819 320.392C480.87 311.094 485.48 302.692 490.649 295.176C495.885 287.558 501.698 280.843 508.155 275.007C514.629 269.126 521.713 264.136 529.475 260.011C537.204 255.88 545.593 252.608 554.66 250.176C560.439 248.616 566.489 247.403 572.81 246.519C576.352 246.026 579.979 245.641 583.674 245.363L645.007 240.752Z" fill="#FEEBCB" fill-opacity="0.3"/>
<path d="M50.7737 979.813L-10.8646 984.449C-13.8474 984.67 -16.8302 984.866 -19.813 985.031C-27.1174 985.441 -34.4557 985.668 -41.8279 985.725C-52.1829 985.814 -62.5887 985.555 -73.0284 984.948C-95.8907 983.628 -118.906 980.659 -142.022 976.036C-204.372 963.548 -268.553 938.964 -332.784 902.959C-384.678 873.858 -436.588 837.336 -487.041 794.408C-569.644 724.136 -621.419 659.315 -626.028 653.485L-564.373 648.849C-559.78 654.679 -508.005 719.5 -425.386 789.772C-374.933 832.7 -323.039 869.222 -271.146 898.323C-206.914 934.327 -142.734 958.911 -80.3837 971.399C-69.0288 973.667 -57.7078 975.543 -46.4037 977.015C-34.7438 978.537 -23.1177 979.63 -11.5425 980.299H-11.5256C-1.03505 980.918 9.42161 981.177 19.8274 981.089C27.1827 981.032 34.538 980.805 41.8424 980.394C44.8252 980.23 47.791 980.034 50.7737 979.813Z" fill="#FEEBCB" fill-opacity="0.3"/>
<path d="M143.07 971.817C132.919 973.282 122.682 974.4 112.412 975.171C109.446 975.398 106.463 975.594 103.481 975.758C96.1763 976.169 88.8379 976.396 81.4657 976.453C71.0599 976.542 60.6202 976.283 50.1297 975.664C38.4867 974.994 26.7928 973.889 15.0651 972.354C3.82885 970.882 -7.4413 969.019 -18.7284 966.764C-20.152 966.479 -21.5756 966.189 -22.9992 965.892C-84.0274 953.151 -146.717 928.87 -209.49 893.687C-261.384 864.586 -313.294 828.064 -363.747 785.136C-446.35 714.864 -498.125 650.043 -502.735 644.213L-441.079 639.577C-436.486 645.407 -384.712 710.228 -302.092 780.5C-251.639 823.427 -199.746 859.95 -147.852 889.051C-98.8905 916.49 -49.9797 937.297 -1.86553 951.168C11.6417 955.065 25.0812 958.413 38.4528 961.211C39.9442 961.527 41.4186 961.83 42.91 962.127C54.1971 964.389 65.4672 966.252 76.7204 967.717C88.4312 969.252 100.125 970.358 111.768 971.027C122.242 971.646 132.681 971.905 143.07 971.817Z" fill="#FEEBCB" fill-opacity="0.3"/>
<path d="M297.039 961.287L235.706 965.898C232.74 966.125 229.757 966.321 226.774 966.485C219.453 966.896 212.098 967.123 204.726 967.18C194.32 967.268 183.88 967.009 173.407 966.39C161.764 965.721 150.07 964.615 138.359 963.08C127.123 961.615 115.852 959.752 104.565 957.49C103.074 957.193 101.6 956.89 100.108 956.574C86.6687 953.763 73.1615 950.397 59.5695 946.474C45.4861 942.406 31.3348 937.751 17.1327 932.502C-17.1183 919.85 -51.6575 903.787 -86.1967 884.414C-138.107 855.313 -190.001 818.791 -240.454 775.863C-323.073 705.591 -374.848 640.77 -379.441 634.94L-318.108 630.322C-313.515 636.159 -261.723 700.98 -179.12 771.252C-128.667 814.179 -76.7739 850.696 -24.8634 879.802C-5.27197 890.787 14.3194 900.71 33.86 909.554C48.7739 916.3 63.6539 922.414 78.4661 927.884C92.7529 933.165 106.972 937.846 121.123 941.92C134.698 945.836 148.222 949.203 161.645 952.001C163.068 952.298 164.475 952.589 165.899 952.873C177.237 955.147 188.575 957.017 199.862 958.495C211.572 960.023 223.249 961.122 234.892 961.792C245.366 962.398 255.806 962.664 266.195 962.569C273.533 962.512 280.82 962.285 288.108 961.874C291.091 961.703 294.073 961.508 297.039 961.287Z" fill="#FEEBCB" fill-opacity="0.3"/>
</svg>
