<svg width="27" height="28" viewBox="0 0 27 28" fill="none" xmlns="http://www.w3.org/2000/svg">
<path d="M25.1636 7.63732C24.3011 8.0207 23.3729 8.2793 22.399 8.39503C23.3934 7.79972 24.1559 6.85674 24.5154 5.73184C23.5853 6.28382 22.5557 6.68434 21.4589 6.90056C20.5811 5.9652 19.33 5.38037 17.9456 5.38037C15.2876 5.38037 13.1326 7.5354 13.1326 10.1938C13.1326 10.5705 13.175 10.9377 13.2574 11.2906C9.25689 11.0896 5.70979 9.1737 3.33568 6.26143C2.92135 6.972 2.68417 7.79876 2.68417 8.68173C2.68417 10.3515 3.5338 11.825 4.82539 12.6879C4.03672 12.6627 3.29425 12.446 2.64512 12.0855C2.64465 12.1055 2.64465 12.126 2.64465 12.1464C2.64465 14.4782 4.3039 16.4232 6.50607 16.8661C6.10222 16.9756 5.67692 17.0347 5.23782 17.0347C4.92731 17.0347 4.62584 17.0047 4.332 16.948C4.94493 18.8601 6.72229 20.2522 8.82827 20.2908C7.18092 21.5819 5.1059 22.3515 2.85039 22.3515C2.46224 22.3515 2.07886 22.3287 1.70215 22.2839C3.83289 23.6502 6.36272 24.4465 9.08068 24.4465C17.9346 24.4465 22.7757 17.1123 22.7757 10.7515C22.7757 10.5429 22.7714 10.3348 22.7624 10.1281C23.7025 9.45087 24.5188 8.60267 25.1636 7.63732Z" fill="#1DA1F2"/>
</svg>